PathFileType	4	(X/Y/Z)	/Users/visionmauri/1_9_1_f_Sports2D/1_9_1_f_Sports2D_m_person00.trc
DataRate	CameraRate	NumFrames	NumMarkers	Units	OrigDataRate	OrigDataStartFrame	OrigNumFrames
30.0	30.0	8	22	m	30.0	305	349
Frame#	Time	Hip			RHip			RKnee			RAnkle			RBigToe			RSmallToe			RHeel			LHip			LKnee			LAnkle			LBigToe			LSmallToe			LHeel			Neck			Head			Nose			RShoulder			RElbow			RWrist			LShoulder			LElbow			LWrist			
		X1	Y1	Z1	X2	Y2	Z2	X3	Y3	Z3	X4	Y4	Z4	X5	Y5	Z5	X6	Y6	Z6	X7	Y7	Z7	X8	Y8	Z8	X9	Y9	Z9	X10	Y10	Z10	X11	Y11	Z11	X12	Y12	Z12	X13	Y13	Z13	X14	Y14	Z14	X15	Y15	Z15	X16	Y16	Z16	X17	Y17	Z17	X18	Y18	Z18	X19	Y19	Z19	X20	Y20	Z20	X21	Y21	Z21	X22	Y22	Z22
305	10.19588122605364	0.7415885485088644	0.6495326080260163	0.0301	0.6831207029812854	0.5474747199030758	0.0301	1.0015636002966632	0.24009391223076773	0.129	1.35019195734406	-0.07961546016948878	0.023	1.4832655736525475	-0.17502276800711566	0.2179	1.4193862085021283	-0.21540310610273786	0.1804	1.4095558200299532	-0.10193666762393336	-0.0119	0.8381856988558846	0.7160826926565235	0.0301	1.1052334392962866	0.47226532687948614	0.129	1.3275294812224043	0.16108934380497278	0.023	1.4794905117136867	-0.0008789479005195972	0.2179	1.501499371706947	0.05609972011807041	0.1804	1.3224008048123417	0.11134916803199515	-0.0119	0.31163301372580016	1.1262942879209932	0.0008	0.17527417598859718	1.3283451447246843	0.0655	0.32653062074950584	1.1526917414409035	0.1076	0.18947782082645453	0.929805075337285	-0.01275	0.3160128235178695	0.6793237884258444	0.0702	0.4595490498280405	0.4621605741443464	0.1076	0.5036158012894586	1.2247634039121984	-0.01275	0.7432136115287135	1.0564118616672848	0.0702	0.7898817022982126	1.0490693242285565	0.1076
306	10.229310344827585	0.7390761108507307	0.6535529771370439	0.0301	0.683872280592911	0.5495697981697987	0.0301	1.0026687468598776	0.2405933482189664	0.129	1.3520597964226617	-0.079421757799946	0.023	1.4831798621577408	-0.17894663137240058	0.2179	1.4201710416685105	-0.2183215822275679	0.1804	1.4101347784967724	-0.10298937711014444	-0.0119	0.8387749798633637	0.7203081533328081	0.0301	1.0968734571883179	0.47914222084599445	0.129	1.3412231201133964	0.14695079973541111	0.023	1.4921414706126006	-0.010466671074147544	0.2179	1.515184594345647	0.04558637407848439	0.1804	1.3478391628734354	0.0881471280522935	-0.0119	0.30876218928556703	1.1295888445889093	0.0008	0.1739057778157827	1.3277296027344574	0.0655	0.3257599270355097	1.1536387868247282	0.1076	0.18287833878260443	0.9329915360698892	-0.01275	0.31102238910322416	0.6785180784266927	0.0702	0.45875145948066226	0.4600094396916387	0.1076	0.4984194131010072	1.2279928256392518	-0.01275	0.7391657333020893	1.059003408894952	0.0702	0.7872280515049227	1.0520931401596705	0.1076
307	10.262739463601532	0.737127079663967	0.6554412877890748	0.0301	0.683255040634128	0.5493271331213564	0.0301	1.004224325387151	0.2392044723902633	0.129	1.355198832045018	-0.0806348002609272	0.023	1.4836581205028345	-0.18346459875838864	0.2179	1.4215314923701035	-0.22292125964979798	0.1804	1.4131832081997642	-0.10449526923152139	-0.0119	0.8385567592079037	0.7229183417141264	0.0301	1.0965908929293942	0.4784031002242999	0.129	1.3598051434769234	0.12643208602174996	0.023	1.5119974612219442	-0.02417843544768129	0.2179	1.535745332675198	0.03094863055643068	0.1804	1.3740753627055748	0.06022768240847939	-0.0119	0.3061486249144025	1.1295062082054956	0.0008	0.17234502248320505	1.3304504410028384	0.0655	0.3266488723694089	1.1558278824217572	0.1076	0.17922901707115732	0.9328947810111069	-0.01275	0.3072221440454335	0.677431607150344	0.0702	0.4559145713169171	0.4585238087080022	0.1076	0.4936801534266475	1.2323136355893336	-0.01275	0.7334850021966707	1.0628495597705006	0.0702	0.7831141663864261	1.0554388911531936	0.1076
308	10.29616858237548	0.7367035960508009	0.6548968754082635	0.0301	0.6812103920776422	0.5487569296441144	0.0301	1.0041651913151346	0.23875563854523346	0.129	1.3580857198711394	-0.08230721830744638	0.023	1.482888357637126	-0.18630003992967023	0.2179	1.4221146531436466	-0.22680290777852893	0.1804	1.418129389895062	-0.10588156449668451	-0.0119	0.8372772852963137	0.7235982840700721	0.0301	1.1021414158802831	0.4712995742361615	0.129	1.3841179296164807	0.10148859199972027	0.023	1.5362496219090707	-0.041849371257438574	0.2179	1.5617961943652354	0.010556068496719457	0.1804	1.403274248608727	0.029776069431067538	-0.0119	0.3034456756168212	1.1281661612540204	0.0008	0.16823671916624175	1.336814543212085	0.0655	0.32472244444678616	1.1601034074039454	0.1076	0.1775838564593877	0.9314188280411888	-0.01275	0.3037550943154448	0.6763011373237826	0.0702	0.4520125387596428	0.45845468416569773	0.1076	0.4914673326258922	1.235761369948194	-0.01275	0.7289004675010454	1.0660672482157647	0.0702	0.7770155484308213	1.0574319096939027	0.1076
309	10.329597701149424	0.7381941886988815	0.6537668532367457	0.0301	0.6801520769092047	0.5478448445330316	0.0301	1.002836037974145	0.23958687224434924	0.129	1.3589578717144442	-0.0833881868321018	0.023	1.480933075384881	-0.18703359525998045	0.2179	1.4217405586384142	-0.22821648229375316	0.1804	1.4215903390251472	-0.10714825294590602	-0.0119	0.836899556107828	0.7227968715434034	0.0301	1.1081053862248318	0.46230474317103426	0.129	1.4116718214616646	0.07728649578898013	0.023	1.5588731069597128	-0.057692426591415755	0.2179	1.587224426353802	-0.009330067769537946	0.1804	1.4373643969618917	0.001476468139364299	-0.0119	0.30114951410478963	1.1283670226759344	0.0008	0.16244046578407573	1.3430713791908355	0.0655	0.3185162454088018	1.1647059821135899	0.1076	0.17621184054595707	0.9301083974085392	-0.01275	0.3006319055938844	0.675022290020153	0.0702	0.4493505238887495	0.45853230362483827	0.1076	0.49095100003836795	1.236728671665759	-0.01275	0.7227495888111475	1.0715091761246645	0.0702	0.7734912067731693	1.0542060705547398	0.1076
310	10.363026819923371	0.7408961352036396	0.6535297264049791	0.0301	0.6813799071779792	0.5452869118804585	0.0301	1.0022481178388223	0.23811933195115034	0.129	1.3582399332344415	-0.0840253580260329	0.023	1.4793682471044187	-0.18630197354965056	0.2179	1.4212524181499944	-0.2278707640647947	0.1804	1.4220982122750616	-0.11095101365423132	-0.0119	0.839782051334681	0.7206667827866814	0.0301	1.112473502169672	0.4540588192973276	0.129	1.4362881034288353	0.060362306884397365	0.023	1.576496835509154	-0.0631304224713246	0.2179	1.606590474878031	-0.016690436622095368	0.1804	1.4695278169608044	-0.017737280444442872	-0.0119	0.29994042685868927	1.1295569260625633	0.0008	0.15781983350327858	1.3470483102845583	0.0655	0.31242638360602354	1.1676533587055835	0.1076	0.17606241083418198	0.9279309261474638	-0.01275	0.29869976666138204	0.6721769702731016	0.0702	0.44818333484157724	0.4568265316968377	0.1076	0.4905699353161154	1.2361641206510252	-0.01275	0.7144313748671544	1.079049498252393	0.0702	0.7796733672034488	1.0437543311707476	0.1076
311	10.396455938697319	0.7434365887138568	0.6535262847012021	0.0301	0.6840426790900931	0.541264686930461	0.0301	1.0030125901871083	0.2328822639229976	0.129	1.3577052770250486	-0.08475946006807517	0.023	1.4779429785749194	-0.18411111115629678	0.2179	1.4207061800560032	-0.2270220010694903	0.1804	1.4209554307565622	-0.11722060214407397	-0.0119	0.8451374187850346	0.7168876710636666	0.0301	1.1154235087753461	0.4472510389460776	0.129	1.4555749815956205	0.05244383071097776	0.023	1.589870961473511	-0.055992558615101884	0.2179	1.6200804238582098	-0.009004113596953429	0.1804	1.4953468635635827	-0.02749570465736266	-0.0119	0.29952501528958325	1.1304655666599195	0.0008	0.1557864604996162	1.349476095396778	0.0655	0.31030044669879164	1.168371017672841	0.1076	0.17766801462061776	0.9246726325934448	-0.01275	0.2979834921015433	0.6671752825369952	0.0702	0.44712320674215067	0.4535653968553147	0.1076	0.4903934417294453	1.2359623844050338	-0.01275	0.7110838640883437	1.0825712092001145	0.0702	0.7904182380283722	1.0347362757652696	0.1076
312	10.429885057471264	0.7441167196587386	0.6518478809452308	0.0301	0.6860392665049578	0.5375142505337789	0.0301	1.0046164961241777	0.22687769082771322	0.129	1.3579652476279283	-0.08534329075308254	0.023	1.475655501806933	-0.1808629695488395	0.2179	1.4199054604607568	-0.22577015469230782	0.1804	1.4201370275906353	-0.12102985755784343	-0.0119	0.8487020748432107	0.7119573550829412	0.0301	1.1174488433803695	0.4405512278221387	0.129	1.472097737146129	0.04909489581652781	0.023	1.599622350817507	-0.042302704984153235	0.2179	1.6302847680305155	0.0025530844178687814	0.1804	1.5157458490378528	-0.031960243352817864	-0.0119	0.29890126663139915	1.1319792311335877	0.0008	0.15585807935372054	1.3501181883189983	0.0655	0.3109292285132085	1.1677167606204575	0.1076	0.17928206496064647	0.9220503754511589	-0.01275	0.2983609944501034	0.6620997461145415	0.0702	0.44582365426312626	0.45095803754945935	0.1076	0.4912313942656056	1.236432818175312	-0.01275	0.7163808025129933	1.0792219872270714	0.0702	0.7933578700293284	1.0373760548920912	0.1076
